<?xml version="1.0" encoding="UTF-8" standalone="no"?>
<svg width="33px" height="32px" viewBox="0 0 33 32" version="1.1" xmlns="http://www.w3.org/2000/svg" xmlns:xlink="http://www.w3.org/1999/xlink">
    <!-- Generator: Sketch 3.8.3 (29802) - http://www.bohemiancoding.com/sketch -->
    <title>share</title>
    <desc>Created with Sketch.</desc>
    <defs>
        <path d="M1.50455927,12.5 C1.50455927,12.5 1.50455927,10.70664 1.50455927,8.49448013 L1.50455927,10.0055199 C1.50455927,7.79333233 3.30066925,6 5.50813944,6 L16.0572101,6 C18.2683264,6 20.0607903,7.79609799 20.0607903,9.99359793 L20.0607903,23.5064021 C20.0607903,25.7120053 18.2646803,27.5 16.0572101,27.5 L5.50813944,27.5 C3.29702317,27.5 1.50455927,25.7188181 1.50455927,23.5004469 L1.50455927,20.9995531" id="path-1"></path>
        <mask id="mask-2" maskContentUnits="userSpaceOnUse" maskUnits="objectBoundingBox" x="0" y="0" width="18.556231" height="21.5" fill="white">
            <use xlink:href="#path-1"></use>
        </mask>
    </defs>
    <g id="0.1" stroke="none" stroke-width="1" fill="none" fill-rule="evenodd">
        <g id="Artboard-37-Copy" transform="translate(-257.000000, -53.000000)">
            <g id="Group-2" transform="translate(257.902736, 53.000000)">
                <g id="Group" transform="translate(5.516717, 2.000000)">
                    <use id="Rectangle-442" stroke="#A9A9A9" mask="url(#mask-2)" stroke-width="3" transform="translate(10.782675, 16.750000) rotate(-270.000000) translate(-10.782675, -16.750000) " xlink:href="#path-1"></use>
                    <path d="M10.7826748,17.5 L10.7826748,0.498161852" id="Path-503" stroke="#979797" stroke-width="1.5"></path>
                    <polyline id="Path-504" stroke="#979797" stroke-width="1.5" points="6.26899696 4 10.7826748 0 15.2963526 4"></polyline>
                </g>
            </g>
        </g>
    </g>
</svg>